ISO-10303-21;
HEADER;
/* Generated by software containing ST-Developer
 * from STEP Tools, Inc. (www.steptools.com) 
 */
/* OPTION: using custom renumber hook */

FILE_DESCRIPTION(
/* description */ ('STEP AP242 Edition 2',
'CAx-IF Rec.Pracs.---Representation and Presentation of Product Manufa
cturing Information (PMI)---4.0---2014-10-13',
'CAx-IF Rec.Pracs.---3D Tessellated Geometry---0.4---2014-09-14','2;1',
'CAx-IF Rec.Pracs.---User Defined Attributes---1.5---2016-08-15'),
/* implementation_level */ '2;1');

FILE_NAME(
/* name */ 'Knob - Part 1',
/* time_stamp */ '2026-07-28T09:36:17Z',
/* author */ (''),
/* organization */ (''),
/* preprocessor_version */ 'ST-DEVELOPER v20',
/* originating_system */ 'ONSHAPE BY PTC INC, 1.218',
/* authorisation */ '  ');

FILE_SCHEMA (('AP242_MANAGED_MODEL_BASED_3D_ENGINEERING_MIM_LF { 1 0 10303 442 3 1 4 }'));
ENDSEC;

DATA;
#10=SHAPE_REPRESENTATION_RELATIONSHIP('','',#115,#11);
#11=ADVANCED_BREP_SHAPE_REPRESENTATION('',(#113),#193);
#12=CONICAL_SURFACE('',#130,0.00425,0.785398163397448);
#13=LINE('',#181,#17);
#14=LINE('',#185,#18);
#15=LINE('',#187,#19);
#16=LINE('',#189,#20);
#17=VECTOR('',#151,1.);
#18=VECTOR('',#154,1.);
#19=VECTOR('',#157,1.);
#20=VECTOR('',#160,1.);
#21=PLANE('',#120);
#22=PLANE('',#122);
#23=PLANE('',#127);
#24=PLANE('',#128);
#25=PLANE('',#129);
#26=ORIENTED_EDGE('',*,*,#46,.T.);
#27=ORIENTED_EDGE('',*,*,#47,.T.);
#28=ORIENTED_EDGE('',*,*,#48,.T.);
#29=ORIENTED_EDGE('',*,*,#49,.F.);
#30=ORIENTED_EDGE('',*,*,#47,.F.);
#31=ORIENTED_EDGE('',*,*,#50,.F.);
#32=ORIENTED_EDGE('',*,*,#51,.F.);
#33=ORIENTED_EDGE('',*,*,#52,.F.);
#34=ORIENTED_EDGE('',*,*,#53,.T.);
#35=ORIENTED_EDGE('',*,*,#49,.T.);
#36=ORIENTED_EDGE('',*,*,#54,.F.);
#37=ORIENTED_EDGE('',*,*,#50,.T.);
#38=ORIENTED_EDGE('',*,*,#54,.T.);
#39=ORIENTED_EDGE('',*,*,#53,.F.);
#40=ORIENTED_EDGE('',*,*,#55,.F.);
#41=ORIENTED_EDGE('',*,*,#51,.T.);
#42=ORIENTED_EDGE('',*,*,#52,.T.);
#43=ORIENTED_EDGE('',*,*,#55,.T.);
#44=ORIENTED_EDGE('',*,*,#46,.F.);
#45=ORIENTED_EDGE('',*,*,#48,.F.);
#46=EDGE_CURVE('',#56,#56,#64,.F.);
#47=EDGE_CURVE('',#57,#57,#65,.T.);
#48=EDGE_CURVE('',#58,#58,#66,.T.);
#49=EDGE_CURVE('',#59,#59,#67,.T.);
#50=EDGE_CURVE('',#60,#61,#68,.T.);
#51=EDGE_CURVE('',#62,#60,#13,.T.);
#52=EDGE_CURVE('',#63,#62,#69,.T.);
#53=EDGE_CURVE('',#63,#61,#14,.T.);
#54=EDGE_CURVE('',#60,#61,#15,.T.);
#55=EDGE_CURVE('',#62,#63,#16,.T.);
#56=VERTEX_POINT('',#168);
#57=VERTEX_POINT('',#170);
#58=VERTEX_POINT('',#173);
#59=VERTEX_POINT('',#176);
#60=VERTEX_POINT('',#179);
#61=VERTEX_POINT('',#180);
#62=VERTEX_POINT('',#182);
#63=VERTEX_POINT('',#184);
#64=CIRCLE('',#118,0.00625);
#65=CIRCLE('',#119,0.00625);
#66=CIRCLE('',#121,0.00425);
#67=CIRCLE('',#123,0.003);
#68=CIRCLE('',#125,0.003);
#69=CIRCLE('',#126,0.003);
#70=EDGE_LOOP('',(#26));
#71=EDGE_LOOP('',(#27));
#72=EDGE_LOOP('',(#28));
#73=EDGE_LOOP('',(#29));
#74=EDGE_LOOP('',(#30));
#75=EDGE_LOOP('',(#31,#32,#33,#34));
#76=EDGE_LOOP('',(#35));
#77=EDGE_LOOP('',(#36,#37));
#78=EDGE_LOOP('',(#38,#39,#40,#41));
#79=EDGE_LOOP('',(#42,#43));
#80=EDGE_LOOP('',(#44));
#81=EDGE_LOOP('',(#45));
#82=FACE_BOUND('',#70,.T.);
#83=FACE_BOUND('',#71,.T.);
#84=FACE_BOUND('',#72,.T.);
#85=FACE_BOUND('',#73,.T.);
#86=FACE_BOUND('',#74,.T.);
#87=FACE_BOUND('',#75,.T.);
#88=FACE_BOUND('',#76,.T.);
#89=FACE_BOUND('',#77,.T.);
#90=FACE_BOUND('',#78,.T.);
#91=FACE_BOUND('',#79,.T.);
#92=FACE_BOUND('',#80,.T.);
#93=FACE_BOUND('',#81,.T.);
#94=CYLINDRICAL_SURFACE('',#117,0.00625);
#95=CYLINDRICAL_SURFACE('',#124,0.003);
#96=ADVANCED_FACE('',(#82,#83),#94,.T.);
#97=ADVANCED_FACE('',(#84),#21,.T.);
#98=ADVANCED_FACE('',(#85,#86),#22,.F.);
#99=ADVANCED_FACE('',(#87,#88),#95,.F.);
#100=ADVANCED_FACE('',(#89),#23,.T.);
#101=ADVANCED_FACE('',(#90),#24,.F.);
#102=ADVANCED_FACE('',(#91),#25,.T.);
#103=ADVANCED_FACE('',(#92,#93),#12,.T.);
#104=CLOSED_SHELL('',(#96,#97,#98,#99,#100,#101,#102,#103));
#105=STYLED_ITEM('',(#106),#113);
#106=PRESENTATION_STYLE_ASSIGNMENT((#107));
#107=SURFACE_STYLE_USAGE(.BOTH.,#108);
#108=SURFACE_SIDE_STYLE('',(#109));
#109=SURFACE_STYLE_FILL_AREA(#110);
#110=FILL_AREA_STYLE('',(#111));
#111=FILL_AREA_STYLE_COLOUR('',#112);
#112=COLOUR_RGB('',0.615686274509804,0.811764705882353,0.929411764705882);
#113=MANIFOLD_SOLID_BREP('Part 1',#104);
#114=SHAPE_DEFINITION_REPRESENTATION(#198,#115);
#115=SHAPE_REPRESENTATION('Part 1',(#116),#193);
#116=AXIS2_PLACEMENT_3D('',#165,#131,#132);
#117=AXIS2_PLACEMENT_3D('',#166,#133,#134);
#118=AXIS2_PLACEMENT_3D('',#167,#135,#136);
#119=AXIS2_PLACEMENT_3D('',#169,#137,#138);
#120=AXIS2_PLACEMENT_3D('',#171,#139,#140);
#121=AXIS2_PLACEMENT_3D('',#172,#141,#142);
#122=AXIS2_PLACEMENT_3D('',#174,#143,#144);
#123=AXIS2_PLACEMENT_3D('',#175,#145,#146);
#124=AXIS2_PLACEMENT_3D('',#177,#147,#148);
#125=AXIS2_PLACEMENT_3D('',#178,#149,#150);
#126=AXIS2_PLACEMENT_3D('',#183,#152,#153);
#127=AXIS2_PLACEMENT_3D('',#186,#155,#156);
#128=AXIS2_PLACEMENT_3D('',#188,#158,#159);
#129=AXIS2_PLACEMENT_3D('',#190,#161,#162);
#130=AXIS2_PLACEMENT_3D('',#191,#163,#164);
#131=DIRECTION('',(0.,0.,1.));
#132=DIRECTION('',(1.,0.,0.));
#133=DIRECTION('',(0.,-1.,0.));
#134=DIRECTION('',(-1.,0.,0.));
#135=DIRECTION('',(0.,1.,0.));
#136=DIRECTION('',(1.,0.,0.));
#137=DIRECTION('',(0.,1.,0.));
#138=DIRECTION('',(1.,0.,0.));
#139=DIRECTION('',(0.,1.,0.));
#140=DIRECTION('',(1.,0.,0.));
#141=DIRECTION('',(0.,1.,0.));
#142=DIRECTION('',(1.,0.,0.));
#143=DIRECTION('',(0.,1.,0.));
#144=DIRECTION('',(1.,0.,0.));
#145=DIRECTION('',(0.,-1.,0.));
#146=DIRECTION('',(-1.,0.,0.));
#147=DIRECTION('',(0.,-1.,0.));
#148=DIRECTION('',(-1.,0.,0.));
#149=DIRECTION('',(0.,-1.,0.));
#150=DIRECTION('',(-1.,0.,0.));
#151=DIRECTION('',(0.,-1.,0.));
#152=DIRECTION('',(0.,-1.,0.));
#153=DIRECTION('',(-1.,0.,0.));
#154=DIRECTION('',(0.,-1.,0.));
#155=DIRECTION('',(0.,-1.,0.));
#156=DIRECTION('',(1.,0.,0.));
#157=DIRECTION('',(-1.,0.,0.));
#158=DIRECTION('',(0.,0.,1.));
#159=DIRECTION('',(0.,-1.,0.));
#160=DIRECTION('',(-1.,0.,0.));
#161=DIRECTION('',(0.,-1.,0.));
#162=DIRECTION('',(1.,0.,0.));
#163=DIRECTION('',(0.,-1.,0.));
#164=DIRECTION('',(-1.,0.,0.));
#165=CARTESIAN_POINT('',(0.,0.,0.));
#166=CARTESIAN_POINT('',(0.,0.025,-3.82702124733548E-19));
#167=CARTESIAN_POINT('',(0.,0.023,-3.82702124733548E-19));
#168=CARTESIAN_POINT('',(0.00625,0.023,-3.82702124733548E-19));
#169=CARTESIAN_POINT('',(0.,0.,-3.82702124733548E-19));
#170=CARTESIAN_POINT('',(0.00625,0.,-3.82702124733548E-19));
#171=CARTESIAN_POINT('',(0.,0.025,0.));
#172=CARTESIAN_POINT('',(0.,0.025,-3.82702124733548E-19));
#173=CARTESIAN_POINT('',(0.00425,0.025,-3.82702124733548E-19));
#174=CARTESIAN_POINT('',(0.,0.,0.));
#175=CARTESIAN_POINT('',(0.,0.,1.83697019872103E-19));
#176=CARTESIAN_POINT('',(-0.003,0.,1.83697019872103E-19));
#177=CARTESIAN_POINT('',(0.,0.003,1.83697019872103E-19));
#178=CARTESIAN_POINT('',(0.,0.003,1.83697019872103E-19));
#179=CARTESIAN_POINT('',(0.00259807585509596,0.003,0.00150000061705567));
#180=CARTESIAN_POINT('',(-0.00259807585509596,0.003,0.00150000061705567));
#181=CARTESIAN_POINT('',(0.00259807585509596,0.013,0.00150000061705567));
#182=CARTESIAN_POINT('',(0.00259807585509596,0.013,0.00150000061705567));
#183=CARTESIAN_POINT('',(0.,0.013,1.83697019872103E-19));
#184=CARTESIAN_POINT('',(-0.00259807585509596,0.013,0.00150000061705567));
#185=CARTESIAN_POINT('',(-0.00259807585509596,0.013,0.00150000061705567));
#186=CARTESIAN_POINT('',(0.,0.003,0.));
#187=CARTESIAN_POINT('',(-0.00130192414490404,0.003,0.00150000061705567));
#188=CARTESIAN_POINT('',(-0.00130192414490404,0.013,0.00150000061705567));
#189=CARTESIAN_POINT('',(-0.00130192414490404,0.013,0.00150000061705567));
#190=CARTESIAN_POINT('',(0.,0.013,0.));
#191=CARTESIAN_POINT('',(0.,0.025,-3.82702124733548E-19));
#192=MECHANICAL_DESIGN_GEOMETRIC_PRESENTATION_REPRESENTATION('',(#105),
#193);
#193=(
GEOMETRIC_REPRESENTATION_CONTEXT(3)
GLOBAL_UNCERTAINTY_ASSIGNED_CONTEXT((#194))
GLOBAL_UNIT_ASSIGNED_CONTEXT((#197,#196,#195))
REPRESENTATION_CONTEXT('Part 1','TOP_LEVEL_ASSEMBLY_PART')
);
#194=UNCERTAINTY_MEASURE_WITH_UNIT(LENGTH_MEASURE(1.E-8),#197,
'DISTANCE_ACCURACY_VALUE','Maximum Tolerance applied to model');
#195=(
NAMED_UNIT(*)
SI_UNIT($,.STERADIAN.)
SOLID_ANGLE_UNIT()
);
#196=(
NAMED_UNIT(*)
PLANE_ANGLE_UNIT()
SI_UNIT($,.RADIAN.)
);
#197=(
LENGTH_UNIT()
NAMED_UNIT(*)
SI_UNIT($,.METRE.)
);
#198=PRODUCT_DEFINITION_SHAPE('','',#199);
#199=PRODUCT_DEFINITION('','',#201,#200);
#200=PRODUCT_DEFINITION_CONTEXT('',#207,'design');
#201=PRODUCT_DEFINITION_FORMATION_WITH_SPECIFIED_SOURCE('','',#203,
 .NOT_KNOWN.);
#202=PRODUCT_RELATED_PRODUCT_CATEGORY('','',(#203));
#203=PRODUCT('Part 1','Part 1','Part 1',(#205));
#204=PRODUCT_CATEGORY('','');
#205=PRODUCT_CONTEXT('',#207,'mechanical');
#206=APPLICATION_PROTOCOL_DEFINITION('international standard',
'ap242_managed_model_based_3d_engineering',2020,#207);
#207=APPLICATION_CONTEXT('managed model based 3d engineering');
ENDSEC;
END-ISO-10303-21;
